<?xml version="1.0" encoding="iso-8859-1"?>
<!-- Generator: Adobe Illustrator 12.0.0, SVG Export Plug-In . SVG Version: 6.00 Build 51448)  -->
<!DOCTYPE svg PUBLIC "-//W3C//DTD SVG 1.0//EN" "http://www.w3.org/TR/2001/REC-SVG-20010904/DTD/svg10.dtd" [
	<!ENTITY ns_svg "http://www.w3.org/2000/svg">
	<!ENTITY ns_xlink "http://www.w3.org/1999/xlink">
]>
<svg class="shape" version="1.0"
	 id="StudioThrowSignalEvent" inkscape:version="0.47 r22583" sodipodi:docname="ThrowSignalEvent.svgz" inkscape:export-xdpi="44.491131" inkscape:export-ydpi="44.491131" inkscape:export-filename="/home/mestab/bonita-studio/plugins/org.bonitasoft.studio.pics/icons/figures/ThrowSignalEvent.png" xmlns:svg="http://www.w3.org/2000/svg" xmlns:sodipodi="http://sodipodi.sourceforge.net/DTD/sodipodi-0.dtd" xmlns:dc="http://purl.org/dc/elements/1.1/" xmlns:rdf="http://www.w3.org/1999/02/22-rdf-syntax-ns#" xmlns:cc="http://creativecommons.org/ns#" xmlns:inkscape="http://www.inkscape.org/namespaces/inkscape"
	 xmlns="&ns_svg;" xmlns:xlink="&ns_xlink;" width="33.875" height="33.875" viewBox="0 0 33.875 33.875"
	 style="overflow:visible;enable-background:new 0 0 33.875 33.875;" xml:space="preserve">
<sodipodi:namedview  id="namedview154" inkscape:pageopacity="0" inkscape:pageshadow="2" inkscape:window-width="640" inkscape:window-height="480" inkscape:current-layer="StudioThrowSignalEvent" objecttolerance="10" gridtolerance="10" showgrid="false" bordercolor="#666666" inkscape:cx="6.7327052" borderopacity="1" guidetolerance="10" pagecolor="#ffffff" inkscape:cy="23.792518" inkscape:zoom="3.4833949">
	</sodipodi:namedview>
<defs>


		<inkscape:perspective  id="perspective158" inkscape:persp3d-origin="16.9375 : 11.291667 : 1" sodipodi:type="inkscape:persp3d" inkscape:vp_x="0 : 16.9375 : 1" inkscape:vp_y="0 : 1000 : 0" inkscape:vp_z="33.875 : 16.9375 : 1">
		</inkscape:perspective>

		<inkscape:perspective  id="perspective3766" inkscape:persp3d-origin="0.5 : 0.33333333 : 1" sodipodi:type="inkscape:persp3d" inkscape:vp_x="0 : 0.5 : 1" inkscape:vp_y="0 : 1000 : 0" inkscape:vp_z="1 : 0.5 : 1">
		</inkscape:perspective>
</defs>
<g id="g3736">
	<g id="layer1">
	</g>
	<g id="layer1-7" transform="translate(-0.31695434,-0.08903251)">
	</g>
</g>
<path fill="transparent" stroke="#2C6DA3" d="M16.938,1.605C8.47,1.605,1.605,8.47,1.605,16.938S8.47,32.271,16.938,32.271
	s15.333-6.865,15.333-15.333S25.406,1.605,16.938,1.605z M16.938,29.438c-6.903,0-12.5-5.596-12.5-12.5
	c0-6.903,5.597-12.5,12.5-12.5c6.904,0,12.5,5.597,12.5,12.5C29.438,23.842,23.842,29.438,16.938,29.438z"/>
<path fill="transparent" stroke="#2C6DA3" d="M16.938,4.438c-6.903,0-12.5,5.597-12.5,12.5c0,6.904,5.597,12.5,12.5,12.5
	c6.904,0,12.5-5.596,12.5-12.5C29.438,10.035,23.842,4.438,16.938,4.438z M8.814,22.754l8.165-15.236l8.166,15.236H8.814z"/>
<polygon fill="#2C6DA3" points="8.814,22.754 25.145,22.754 16.979,7.518 "/>
</svg>
