<?xml version="1.0" encoding="iso-8859-1"?>
<!-- Generator: Adobe Illustrator 12.0.0, SVG Export Plug-In . SVG Version: 6.00 Build 51448)  -->
<!DOCTYPE svg PUBLIC "-//W3C//DTD SVG 1.1//EN" "http://www.w3.org/Graphics/SVG/1.1/DTD/svg11.dtd" [
	<!ENTITY ns_svg "http://www.w3.org/2000/svg">
	<!ENTITY ns_xlink "http://www.w3.org/1999/xlink">
]>
<svg class="shape" version="1.1" id="StudioXORGateway" xmlns="&ns_svg;" xmlns:xlink="&ns_xlink;" width="43.416" height="43.416"
	 viewBox="0 0 43.416 43.416" style="overflow:visible;enable-background:new 0 0 43.416 43.416;" xml:space="preserve">
<linearGradient id="XMLID_2_XORGateway_" gradientUnits="userSpaceOnUse" x1="158.8047" y1="-158.2368" x2="132.3153" y2="-142.9442" gradientTransform="matrix(1 0 0 -1 -123.2021 -128.5068)">
	<stop  offset="0" style="stop-color:#E9ECB1"/>
	<stop  offset="1" style="stop-color:#FBFBEE"/>
</linearGradient>
<polygon fill="url(#XMLID_2_XORGateway_)" stroke="#96A826" stroke-width="1.7" points="21.708,42.214 1.202,21.708 21.708,1.202
	42.214,21.708 "/>
<path fill="#96A826" d="M16.581,29.334l8.074-16.269c0,0,0.531-1.029,1.603-0.497c1.134,0.563,0.548,1.586,0.548,1.586
	l-8.065,16.25c0,0-0.466,0.984-1.597,0.425C16.069,30.295,16.581,29.334,16.581,29.334z"/>
<path fill="#96A826" d="M26.835,29.334L18.76,13.065c0,0-0.531-1.029-1.602-0.497c-1.134,0.563-0.547,1.586-0.547,1.586
	l8.065,16.25c0,0,0.466,0.984,1.597,0.425C27.347,30.295,26.835,29.334,26.835,29.334z"/>
</svg>
