<?xml version="1.0" encoding="iso-8859-1"?>
<!-- Generator: Adobe Illustrator 12.0.0, SVG Export Plug-In . SVG Version: 6.00 Build 51448)  -->
<!DOCTYPE svg PUBLIC "-//W3C//DTD SVG 1.1//EN" "http://www.w3.org/Graphics/SVG/1.1/DTD/svg11.dtd" [
	<!ENTITY ns_svg "http://www.w3.org/2000/svg">
	<!ENTITY ns_xlink "http://www.w3.org/1999/xlink">
]>
<svg  version="1.1"
	 id="StudioLoop" inkscape:version="0.48.0 r9654" sodipodi:docname="loop.svgz" xmlns:rdf="http://www.w3.org/1999/02/22-rdf-syntax-ns#" xmlns:dc="http://purl.org/dc/elements/1.1/" xmlns:sodipodi="http://sodipodi.sourceforge.net/DTD/sodipodi-0.dtd" xmlns:inkscape="http://www.inkscape.org/namespaces/inkscape" xmlns:svg="http://www.w3.org/2000/svg" xmlns:cc="http://creativecommons.org/ns#"
	 xmlns="&ns_svg;" xmlns:xlink="&ns_xlink;" width="23.26" height="19.119" viewBox="0 0 23.26 19.119"
	 style="overflow:visible;enable-background:new 0 0 23.26 19.119;" xml:space="preserve">
<sodipodi:namedview  id="namedview5" inkscape:window-width="640" inkscape:window-height="480" fit-margin-left="0" fit-margin-right="0" fit-margin-bottom="0" inkscape:current-layer="StudioLoop" objecttolerance="10" inkscape:pageopacity="0" inkscape:pageshadow="2" guidetolerance="10" pagecolor="#ffffff" inkscape:cy="98.659002" showgrid="false" bordercolor="#666666" borderopacity="1" inkscape:zoom="0.28032165" inkscape:cx="11.629" fit-margin-top="0" gridtolerance="10">
	</sodipodi:namedview>
<path id="STYLE" inkscape:connector-curvature="0" fill="#2C6DA3" d="M13.503,0C8.112,0,3.744,4.368,3.744,9.76
	c0,1.546,0.371,3.007,1.013,4.308l-2.871-1.092l-0.003,0.008c-0.145-0.051-0.298-0.082-0.46-0.082C0.638,12.901,0,13.538,0,14.323
	c0,0.589,0.358,1.094,0.867,1.311v0.004l8.059,3.08l2.015-8.902c0.011-0.041,0.021-0.083,0.028-0.126l0.008-0.032h-0.004
	c0.01-0.067,0,0.021,0-0.049c0-0.785-0.637-1.422-1.424-1.422c-0.637,0-1.171,0.423-1.352,1.001L8.176,9.183L7.33,12.851
	c-0.467-0.931-0.736-1.976-0.736-3.09c0.007-3.817,3.093-6.903,6.91-6.91c3.813,0.007,6.899,3.093,6.908,6.91
	c0.002,3.09-2.031,5.704-4.828,6.59l0.006,0.012c-0.547,0.199-0.938,0.72-0.938,1.334c0,0.785,0.637,1.423,1.422,1.423
	c0.129,0,0.252-0.022,0.369-0.056l0.002,0.004c0.024-0.008,0.049-0.02,0.076-0.026c0.045-0.017,0.092-0.028,0.135-0.049
	c3.844-1.313,6.604-4.946,6.604-9.23C23.259,4.369,18.892,0,13.503,0z M0.864,15.638l0.002-0.002l-0.002-0.001V15.638z"/>
</svg>
