<?xml version="1.0" encoding="iso-8859-1"?>
<!-- Generator: Adobe Illustrator 12.0.0, SVG Export Plug-In . SVG Version: 6.00 Build 51448)  -->
<!DOCTYPE svg PUBLIC "-//W3C//DTD SVG 1.1//EN" "http://www.w3.org/Graphics/SVG/1.1/DTD/svg11.dtd" [
	<!ENTITY ns_svg "http://www.w3.org/2000/svg">
	<!ENTITY ns_xlink "http://www.w3.org/1999/xlink">
]>
<svg  version="1.1"
	 id="Calque_1" inkscape:version="0.48.1 r9760" sodipodi:docname="minus.svgz" xmlns:rdf="http://www.w3.org/1999/02/22-rdf-syntax-ns#" xmlns:dc="http://purl.org/dc/elements/1.1/" xmlns:sodipodi="http://sodipodi.sourceforge.net/DTD/sodipodi-0.dtd" xmlns:inkscape="http://www.inkscape.org/namespaces/inkscape" xmlns:svg="http://www.w3.org/2000/svg" xmlns:cc="http://creativecommons.org/ns#"
	 xmlns="&ns_svg;" xmlns:xlink="&ns_xlink;" width="17.667" height="17.667" viewBox="0 0 17.667 17.667"
	 style="overflow:visible;enable-background:new 0 0 17.667 17.667;" xml:space="preserve">
<sodipodi:namedview  id="namedview7" inkscape:window-width="1680" inkscape:window-height="1002" fit-margin-left="0" fit-margin-right="0" fit-margin-bottom="0" inkscape:current-layer="Calque_1" objecttolerance="10" inkscape:pageopacity="0" inkscape:pageshadow="2" guidetolerance="10" pagecolor="#ffffff" inkscape:cy="8.271494" showgrid="false" bordercolor="#666666" borderopacity="1" inkscape:zoom="43.233005" inkscape:cx="7.6018975" fit-margin-top="0" gridtolerance="10" inkscape:window-x="0" inkscape:window-y="0" inkscape:window-maximized="1">
	</sodipodi:namedview>
<path id="STYLE" inkscape:connector-curvature="0" sodipodi:nodetypes="ccsssccssscccccscsccccc" fill="#2C6DA3" d="
	M13.408,7.932V7.93h-0.02c-0.002,0-0.004-0.001-0.006-0.001S12.498,7.93,12.494,7.93h-3.01c-3.169,0.032,1.135,0.002-1.741,0.001
	H3.852c-0.002,0-0.004-0.001-0.006-0.001c-0.482,0-0.871,0.405-0.871,0.905c0,0.499,0.388,0.903,0.868,0.905l0,0
	c0.001,0,0.002,0,0.002,0c0.002,0,0.003,0,0.003,0c8.724,0.003,7.888,0.035,5.636,0h3.895c0.002,0,0.003,0,0.004,0
	c0,0,0.002,0,0.003,0h0.022l-0.047,0.007c0.469-0.015,0.892-0.42,0.892-0.912C14.253,8.344,13.876,7.945,13.408,7.932L13.408,7.932z
	"/>
<rect id="BORDER" x="1" y="1" fill="transparent" stroke="#2C6DA3" stroke-width="2" width="15.667" height="15.667"/>
</svg>
