<?xml version="1.0" encoding="iso-8859-1"?>
<!-- Generator: Adobe Illustrator 12.0.0, SVG Export Plug-In . SVG Version: 6.00 Build 51448)  -->
<!DOCTYPE svg PUBLIC "-//W3C//DTD SVG 1.1//EN" "http://www.w3.org/Graphics/SVG/1.1/DTD/svg11.dtd" [
	<!ENTITY ns_svg "http://www.w3.org/2000/svg">
	<!ENTITY ns_xlink "http://www.w3.org/1999/xlink">
]>
<svg  version="1.1"
	 id="StudioMultiInstance-sequential" inkscape:version="0.48.1 r9760" sodipodi:docname="multiInstance.svgz" xmlns:rdf="http://www.w3.org/1999/02/22-rdf-syntax-ns#" xmlns:dc="http://purl.org/dc/elements/1.1/" xmlns:sodipodi="http://sodipodi.sourceforge.net/DTD/sodipodi-0.dtd" xmlns:inkscape="http://www.inkscape.org/namespaces/inkscape" xmlns:svg="http://www.w3.org/2000/svg" xmlns:cc="http://creativecommons.org/ns#"
	 xmlns="&ns_svg;" xmlns:xlink="&ns_xlink;" width="17.003" height="18.418" viewBox="0 0 17.003 18.418"
	 style="transform:rotate(90);overflow:visible;enable-background:new 0 0 17.003 18.418;" xml:space="preserve">
<sodipodi:namedview  id="namedview9" inkscape:window-width="1225" inkscape:window-height="775" fit-margin-left="0" fit-margin-right="0" fit-margin-bottom="0" inkscape:current-layer="StudioMultiInstance-sequential" objecttolerance="10" inkscape:pageopacity="0" inkscape:pageshadow="2" guidetolerance="10" pagecolor="#ffffff" inkscape:cy="-7.532287" showgrid="false" bordercolor="#666666" borderopacity="1" inkscape:zoom="6.2699817" inkscape:cx="1.5862182" fit-margin-top="0" gridtolerance="10" inkscape:window-x="0" inkscape:window-y="22" inkscape:window-maximized="0">
	</sodipodi:namedview>
<path id="STYLE" inkscape:connector-curvature="0" fill="#2C6DA3" d="M0.75,3.512l15.563,0.082
	c0.002,0,0.004,0.001,0.006,0.001c0,0,0.002-0.001,0.005-0.001l0.036,0V3.59c0.767-0.018,1.385-0.639,1.389-1.412
	c0.004-0.771-0.607-1.398-1.373-1.425V0.75h-0.032c-0.003,0-0.007-0.001-0.01-0.001S16.326,0.75,16.322,0.75L0.77,0.668
	c-0.003,0-0.007-0.001-0.01-0.001c-0.786-0.004-1.426,0.629-1.431,1.415c-0.004,0.785,0.626,1.423,1.411,1.43l0,0l0,0
	c0.002,0,0.004,0.001,0.005,0.001S0.748,3.512,0.75,3.512z"/>
<path id="STYLE2" inkscape:connector-curvature="0" fill="#2C6DA3" d="M0.712,10.591l15.563,0.081
	c0.002,0,0.004,0.002,0.006,0.002c0,0,0.002-0.002,0.005-0.002h0.036v-0.004c0.767-0.018,1.385-0.639,1.389-1.411
	c0.004-0.771-0.607-1.398-1.373-1.425V7.829h-0.032c-0.003,0-0.007-0.001-0.01-0.001s-0.007,0.001-0.011,0.001L0.732,7.747
	c-0.003,0-0.007-0.001-0.01-0.001c-0.786-0.004-1.426,0.63-1.431,1.415c-0.004,0.785,0.626,1.424,1.411,1.431l0,0l0,0
	c0.002,0,0.004,0.001,0.005,0.001S0.71,10.591,0.712,10.591L0.712,10.591z"/>
<path id="STYLE3" inkscape:connector-curvature="0" fill="#2C6DA3" d="M0.676,17.668l15.562,0.082
	c0.002,0,0.004,0.001,0.006,0.001c0,0,0.002-0.001,0.005-0.001h0.036v-0.004c0.767-0.018,1.385-0.639,1.389-1.412
	c0.004-0.771-0.607-1.397-1.373-1.424v-0.004h-0.032c-0.003,0-0.007-0.001-0.01-0.001s-0.007,0.001-0.011,0.001L0.695,14.825
	c-0.003,0-0.007,0-0.01,0c-0.786-0.005-1.426,0.629-1.431,1.414c-0.004,0.785,0.626,1.424,1.411,1.43l0,0l0,0
	c0.002,0,0.004,0.002,0.005,0.002S0.673,17.668,0.676,17.668L0.676,17.668z"/>
</svg>
