<?xml version="1.0" encoding="iso-8859-1"?>
<!-- Generator: Adobe Illustrator 12.0.0, SVG Export Plug-In . SVG Version: 6.00 Build 51448)  -->
<!DOCTYPE svg PUBLIC "-//W3C//DTD SVG 1.1//EN" "http://www.w3.org/Graphics/SVG/1.1/DTD/svg11.dtd" [
	<!ENTITY ns_svg "http://www.w3.org/2000/svg">
	<!ENTITY ns_xlink "http://www.w3.org/1999/xlink">
]>
<svg  version="1.1"
	 id="Calque_1" inkscape:version="0.48.0 r9654" sodipodi:docname="pause.svgz" xmlns:rdf="http://www.w3.org/1999/02/22-rdf-syntax-ns#" xmlns:dc="http://purl.org/dc/elements/1.1/" xmlns:sodipodi="http://sodipodi.sourceforge.net/DTD/sodipodi-0.dtd" xmlns:inkscape="http://www.inkscape.org/namespaces/inkscape" xmlns:svg="http://www.w3.org/2000/svg" xmlns:cc="http://creativecommons.org/ns#"
	 xmlns="&ns_svg;" xmlns:xlink="&ns_xlink;" width="10.497" height="18.418" viewBox="0 0 10.497 18.418"
	 style="overflow:visible;enable-background:new 0 0 10.497 18.418;" xml:space="preserve">
<sodipodi:namedview  id="namedview7" inkscape:window-width="640" inkscape:window-height="480" fit-margin-left="0" fit-margin-right="0" fit-margin-bottom="0" inkscape:current-layer="Calque_1" objecttolerance="10" inkscape:pageopacity="0" inkscape:pageshadow="2" guidetolerance="10" pagecolor="#ffffff" inkscape:cy="84.047001" showgrid="false" bordercolor="#666666" borderopacity="1" inkscape:zoom="1.5857387" inkscape:cx="-66.954001" fit-margin-top="0" gridtolerance="10">
	</sodipodi:namedview>
<path id="STYLE" inkscape:connector-curvature="0" fill="#2C6DA3" d="M2.844,16.99V1.427c0-0.001,0.001-0.003,0.001-0.004
	c0-0.002-0.001-0.004-0.001-0.006V1.381H2.84C2.819,0.615,2.194,0,1.422,0S0.026,0.615,0.004,1.381H0v0.032c0,0.003,0,0.006,0,0.01
	c0,0.003,0,0.006,0,0.01v15.553c0,0.003,0,0.006,0,0.01c0,0.785,0.637,1.422,1.422,1.422c0.784,0,1.42-0.633,1.422-1.417l0,0V17
	c0-0.001,0.001-0.003,0.001-0.004C2.844,16.994,2.844,16.992,2.844,16.99z"/>
<path id="STYLE2" inkscape:connector-curvature="0" fill="#2C6DA3" d="M10.497,16.99V1.427c0-0.001,0-0.003,0-0.004
	c0-0.002,0-0.004,0-0.006V1.381h-0.004C10.471,0.615,9.846,0,9.075,0C8.301,0,7.678,0.615,7.656,1.381H7.652v0.032
	c0,0.003,0,0.006,0,0.01c0,0.003,0,0.006,0,0.01v15.553c0,0.003,0,0.006,0,0.01c0,0.785,0.638,1.422,1.423,1.422
	c0.783,0,1.42-0.633,1.422-1.417l0,0V17c0-0.001,0-0.003,0-0.004C10.497,16.994,10.497,16.992,10.497,16.99z"/>
</svg>
