<?xml version="1.0" encoding="iso-8859-1"?>
<!-- Generator: Adobe Illustrator 12.0.0, SVG Export Plug-In . SVG Version: 6.00 Build 51448)  -->
<!DOCTYPE svg PUBLIC "-//W3C//DTD SVG 1.1//EN" "http://www.w3.org/Graphics/SVG/1.1/DTD/svg11.dtd" [
	<!ENTITY ns_svg "http://www.w3.org/2000/svg">
	<!ENTITY ns_xlink "http://www.w3.org/1999/xlink">
]>
<svg  version="1.1"
	 id="StudioPlus_loop" inkscape:version="0.48.0 r9654" sodipodi:docname="plus_loop.svgz" xmlns:rdf="http://www.w3.org/1999/02/22-rdf-syntax-ns#" xmlns:dc="http://purl.org/dc/elements/1.1/" xmlns:sodipodi="http://sodipodi.sourceforge.net/DTD/sodipodi-0.dtd" xmlns:inkscape="http://www.inkscape.org/namespaces/inkscape" xmlns:svg="http://www.w3.org/2000/svg" xmlns:cc="http://creativecommons.org/ns#"
	 xmlns="&ns_svg;" xmlns:xlink="&ns_xlink;" width="40.154" height="17.725" viewBox="0 0 40.154 17.725"
	 style="overflow:visible;enable-background:new 0 0 40.154 17.725;" xml:space="preserve">
<sodipodi:namedview  id="namedview9" inkscape:window-width="640" inkscape:window-height="480" fit-margin-left="0" fit-margin-right="0" fit-margin-bottom="0" inkscape:current-layer="StudioPlus_loop" objecttolerance="10" inkscape:pageopacity="0" inkscape:pageshadow="2" guidetolerance="10" pagecolor="#ffffff" inkscape:cy="84.508989" showgrid="false" bordercolor="#666666" borderopacity="1" inkscape:zoom="0.28032165" inkscape:cx="-7.9090001" fit-margin-top="0" gridtolerance="10">
	</sodipodi:namedview>
<path id="STYLE" inkscape:connector-curvature="0" fill="#2C6DA3" d="M12.438,0C7.473,0,3.449,4.022,3.449,8.99
	c0,1.422,0.343,2.768,0.934,3.967L1.738,11.95l-0.003,0.007c-0.134-0.046-0.274-0.076-0.424-0.076C0.587,11.881,0,12.468,0,13.192
	c0,0.542,0.33,1.008,0.799,1.206v0.003l7.423,2.839l1.855-8.199c0.01-0.038,0.02-0.076,0.025-0.116l0.008-0.029h-0.005
	c0.01-0.063,0,0.021,0-0.046c0-0.723-0.586-1.309-1.312-1.309c-0.586,0-1.078,0.389-1.245,0.922l-0.02-0.004L6.75,11.835
	c-0.43-0.856-0.678-1.818-0.678-2.845c0.006-3.518,2.849-6.358,6.364-6.364c3.514,0.006,6.355,2.848,6.362,6.364
	c0.002,2.846-1.872,5.253-4.446,6.067l0.005,0.012c-0.503,0.184-0.865,0.662-0.865,1.229c0,0.725,0.587,1.311,1.312,1.311
	c0.117,0,0.229-0.021,0.34-0.051l0.002,0.004c0.021-0.008,0.044-0.018,0.067-0.023c0.042-0.017,0.086-0.027,0.125-0.046
	c3.54-1.208,6.082-4.556,6.084-8.501C21.424,4.022,17.401,0,12.438,0z M0.798,14.402L0.8,14.4l-0.002-0.001V14.402z"/>
<path id="STYLE2" inkscape:connector-curvature="0" fill="#2C6DA3" d="M36.302,7.99V7.988h-0.021
	c-0.002,0-0.004-0.001-0.006-0.001s-0.004,0.001-0.007,0.001h-4.043V3.941c0-0.002,0.001-0.003,0.001-0.003
	c0-0.001-0.001-0.003-0.001-0.004V3.911h-0.003c-0.015-0.487-0.411-0.878-0.902-0.878c-0.49,0-0.888,0.391-0.902,0.878h-0.002v0.021
	c0,0.002-0.001,0.004-0.001,0.006s0.001,0.004,0.001,0.007V7.99h-4.043c-0.002,0-0.004-0.002-0.007-0.002
	c-0.501,0-0.905,0.405-0.905,0.905c0,0.499,0.403,0.903,0.902,0.905l0,0c0.001,0,0.002,0,0.002,0c0.002,0,0.004,0,0.004,0h4.047
	v4.043c0,0.001-0.001,0.003-0.001,0.006c0,0.501,0.405,0.905,0.905,0.905c0.499,0,0.903-0.403,0.905-0.902l0,0
	c0-0.001,0.001-0.002,0.001-0.003s-0.001-0.003-0.001-0.003V9.798h4.046c0.002,0,0.003,0,0.004,0c0,0,0.002,0,0.003,0h0.022V9.795
	c0.487-0.014,0.879-0.411,0.879-0.902C37.18,8.402,36.789,8.003,36.302,7.99z"/>
<rect id="BORDER" x="23.487" y="1.058" fill="transparent" stroke="#2C6DA3" stroke-width="2" width="15.667" height="15.667"/>
</svg>
