<?xml version="1.0" encoding="iso-8859-1"?>
<!-- Generator: Adobe Illustrator 12.0.0, SVG Export Plug-In . SVG Version: 6.00 Build 51448)  -->
<!DOCTYPE svg PUBLIC "-//W3C//DTD SVG 1.1//EN" "http://www.w3.org/Graphics/SVG/1.1/DTD/svg11.dtd" [
	<!ENTITY ns_svg "http://www.w3.org/2000/svg">
	<!ENTITY ns_xlink "http://www.w3.org/1999/xlink">
]>
<svg  version="1.1"
	 id="StudioPlus_multi" inkscape:version="0.48.0 r9654" sodipodi:docname="plus_multi.svgz" xmlns:rdf="http://www.w3.org/1999/02/22-rdf-syntax-ns#" xmlns:dc="http://purl.org/dc/elements/1.1/" xmlns:sodipodi="http://sodipodi.sourceforge.net/DTD/sodipodi-0.dtd" xmlns:inkscape="http://www.inkscape.org/namespaces/inkscape" xmlns:svg="http://www.w3.org/2000/svg" xmlns:cc="http://creativecommons.org/ns#"
	 xmlns="&ns_svg;" xmlns:xlink="&ns_xlink;" width="37.117" height="17.676" viewBox="0 0 37.117 17.676"
	 style="overflow:visible;enable-background:new 0 0 37.117 17.676;" xml:space="preserve">
<sodipodi:namedview  id="namedview13" inkscape:window-width="640" inkscape:window-height="480" fit-margin-left="0" fit-margin-right="0" fit-margin-bottom="0" inkscape:current-layer="StudioPlus_multi" objecttolerance="10" inkscape:pageopacity="0" inkscape:pageshadow="2" guidetolerance="10" pagecolor="#ffffff" inkscape:cy="84.508989" showgrid="false" bordercolor="#666666" borderopacity="1" inkscape:zoom="0.28032165" inkscape:cx="-10.946" fit-margin-top="0" gridtolerance="10">
	</sodipodi:namedview>
<path id="STYLE" inkscape:connector-curvature="0" fill="#2C6DA3" d="M33.266,7.942V7.94h-0.021
	c-0.002,0-0.004-0.001-0.006-0.001S33.234,7.94,33.23,7.94h-4.043V3.893c0-0.002,0.002-0.003,0.002-0.003
	c0-0.001-0.002-0.003-0.002-0.004V3.863h-0.002c-0.015-0.487-0.412-0.878-0.902-0.878s-0.889,0.391-0.902,0.878h-0.002v0.021
	c0,0.002-0.001,0.004-0.001,0.006s0.001,0.004,0.001,0.007v4.044h-4.043c-0.002,0-0.004-0.001-0.007-0.001
	c-0.501,0-0.905,0.405-0.905,0.905c0,0.499,0.403,0.903,0.902,0.905l0,0c0.001,0,0.002,0,0.002,0c0.002,0,0.004,0,0.004,0h4.047
	v4.043c0,0-0.001,0.002-0.001,0.006c0,0.5,0.405,0.904,0.905,0.904c0.499,0,0.902-0.402,0.904-0.902l0,0l0.002-0.002
	c0-0.002-0.002-0.004-0.002-0.004V9.75h4.047c0.002,0,0.002,0,0.004,0c0,0,0.002,0,0.003,0h0.022V9.747
	c0.487-0.014,0.879-0.411,0.879-0.901C34.143,8.354,33.752,7.955,33.266,7.942z"/>
<rect id="BORDER" x="20.45" y="1.01" fill="transparent" stroke="#2C6DA3" stroke-width="2" width="15.667" height="15.667"/>
<path id="STYLE2" inkscape:connector-curvature="0" fill="#2C6DA3" d="M2.728,16.299V1.369c0-0.001,0.001-0.003,0.001-0.004
	S2.728,1.362,2.728,1.36V1.324H2.724C2.703,0.59,2.104,0,1.364,0c-0.739,0-1.339,0.59-1.36,1.324H0.001v0.031
	C0.001,1.358,0,1.362,0,1.365c0,0.003,0.001,0.006,0.001,0.009v14.919c0,0.004-0.001,0.006-0.001,0.01
	c0,0.755,0.61,1.365,1.364,1.365c0.753,0,1.361-0.607,1.364-1.36l0,0l0,0c0-0.002,0.001-0.004,0.001-0.005
	C2.729,16.301,2.728,16.299,2.728,16.299z"/>
<path id="STYLE3" inkscape:connector-curvature="0" fill="#2C6DA3" d="M9.519,16.299V1.369c0-0.001,0.001-0.003,0.001-0.004
	S9.519,1.362,9.519,1.36V1.324H9.515C9.493,0.59,8.895,0,8.153,0c-0.738,0-1.337,0.59-1.36,1.324H6.791v0.031
	c0,0.003-0.001,0.007-0.001,0.01c0,0.003,0.001,0.006,0.001,0.009v14.919c0,0.004-0.001,0.006-0.001,0.01
	c0,0.755,0.61,1.365,1.363,1.365c0.754,0,1.363-0.607,1.366-1.36l0,0l0,0c0-0.002,0.001-0.004,0.001-0.005
	C9.52,16.301,9.519,16.299,9.519,16.299z"/>
<path id="STYLE4" inkscape:connector-curvature="0" fill="#2C6DA3" d="M16.309,16.299V1.369c0-0.001,0.001-0.003,0.001-0.004
	s-0.001-0.003-0.001-0.005V1.324h-0.004C16.284,0.59,15.685,0,14.945,0c-0.74,0-1.338,0.59-1.36,1.324h-0.003v0.031
	c0,0.003-0.001,0.007-0.001,0.01c0,0.003,0.001,0.006,0.001,0.009v14.919c0,0.004-0.001,0.006-0.001,0.01
	c0,0.755,0.611,1.365,1.364,1.365s1.361-0.607,1.364-1.36l0,0l0,0c0-0.002,0.001-0.004,0.001-0.005
	C16.31,16.301,16.309,16.299,16.309,16.299z"/>
</svg>
