<?xml version="1.0" encoding="iso-8859-1"?>
<!-- Generator: Adobe Illustrator 12.0.0, SVG Export Plug-In . SVG Version: 6.00 Build 51448)  -->
<!DOCTYPE svg PUBLIC "-//W3C//DTD SVG 1.1//EN" "http://www.w3.org/Graphics/SVG/1.1/DTD/svg11.dtd" [
	<!ENTITY ns_svg "http://www.w3.org/2000/svg">
	<!ENTITY ns_xlink "http://www.w3.org/1999/xlink">
]>
<svg  version="1.1"
	 id="StudioPlus" inkscape:version="0.48.1 r9760" sodipodi:docname="plus.svgz" xmlns:rdf="http://www.w3.org/1999/02/22-rdf-syntax-ns#" xmlns:dc="http://purl.org/dc/elements/1.1/" xmlns:sodipodi="http://sodipodi.sourceforge.net/DTD/sodipodi-0.dtd" xmlns:inkscape="http://www.inkscape.org/namespaces/inkscape" xmlns:svg="http://www.w3.org/2000/svg" xmlns:cc="http://creativecommons.org/ns#"
	 xmlns="&ns_svg;" xmlns:xlink="&ns_xlink;" width="17.667" height="17.667" viewBox="0 0 17.667 17.667"
	 style="overflow:visible;enable-background:new 0 0 17.667 17.667;" xml:space="preserve">
<sodipodi:namedview  id="namedview7" inkscape:window-width="1680" inkscape:window-height="1002" fit-margin-left="0" fit-margin-right="0" fit-margin-bottom="0" inkscape:current-layer="StudioPlus" objecttolerance="10" inkscape:pageopacity="0" inkscape:pageshadow="2" guidetolerance="10" pagecolor="#ffffff" inkscape:cy="0.0095149553" showgrid="false" bordercolor="#666666" borderopacity="1" inkscape:zoom="19.97" inkscape:cx="0.0060076458" fit-margin-top="0" gridtolerance="10" inkscape:window-x="0" inkscape:window-y="0" inkscape:window-maximized="0">
	</sodipodi:namedview>
<path id="STYLE" inkscape:connector-curvature="0" sodipodi:nodetypes="ccssscscsccsccssscssscccccsssccsccscsccccc" fill="#2C6DA3" d="
	M13.738,7.572V7.57h-0.021c-0.001,0-0.003-0.001-0.005-0.001S13.708,7.57,13.705,7.57H9.878V3.817c0-0.001,0-0.002,0-0.002
	c0-0.001,0-0.003,0-0.004V3.789H9.875C9.862,3.337,9.486,2.975,9.021,2.975c-0.464,0-0.84,0.362-0.854,0.814H8.166v0.02
	c0,0.002-0.001,0.004-0.001,0.006c0,0.001,0.001,0.003,0.001,0.006v3.75H4.338c-0.001,0-0.003,0-0.006,0
	c-0.474,0-0.857,0.375-0.857,0.839c0,0.463,0.382,0.837,0.854,0.839l0,0c0.001,0,0.002,0,0.002,0c0.002,0,0.004,0,0.004,0h3.831
	v3.749C8.166,13,8.165,13,8.165,13.003c0,0.465,0.383,0.84,0.856,0.84c0.473,0,0.855-0.374,0.857-0.837l0,0c0-0.001,0-0.002,0-0.003
	s0-0.003,0-0.003V9.249h3.83c0.002,0,0.002,0,0.004,0h0.002h0.021l-0.419-0.003c0.461-0.013,0.925-0.381,0.925-0.836
	c0-0.455-0.463-0.825-0.924-0.837H13.738z"/>
<rect id="BORDER" x="1" y="1" fill="transparent" stroke="#2C6DA3" stroke-width="2" width="15.667" height="15.667"/>
</svg>
