<?xml version="1.0" encoding="iso-8859-1"?>
<!-- Generator: Adobe Illustrator 12.0.0, SVG Export Plug-In . SVG Version: 6.00 Build 51448)  -->
<!DOCTYPE svg PUBLIC "-//W3C//DTD SVG 1.1//EN" "http://www.w3.org/Graphics/SVG/1.1/DTD/svg11.dtd" [
	<!ENTITY ns_svg "http://www.w3.org/2000/svg">
	<!ENTITY ns_xlink "http://www.w3.org/1999/xlink">
]>
<svg  version="1.1"
	 id="StudioPlus_multi_sequential" inkscape:version="0.48.1 r9760" sodipodi:docname="plus_multi.svgz" xmlns:rdf="http://www.w3.org/1999/02/22-rdf-syntax-ns#" xmlns:dc="http://purl.org/dc/elements/1.1/" xmlns:sodipodi="http://sodipodi.sourceforge.net/DTD/sodipodi-0.dtd" xmlns:inkscape="http://www.inkscape.org/namespaces/inkscape" xmlns:svg="http://www.w3.org/2000/svg" xmlns:cc="http://creativecommons.org/ns#"
	 xmlns="&ns_svg;" xmlns:xlink="&ns_xlink;" width="37.117" height="17.676" viewBox="0 0 37.117 17.676"
	 style="overflow:visible;enable-background:new 0 0 37.117 17.676;" xml:space="preserve">
<sodipodi:namedview  id="namedview13" inkscape:window-width="1680" inkscape:window-height="1002" fit-margin-left="0" fit-margin-right="0" fit-margin-bottom="0" inkscape:current-layer="StudioPlus_multi_sequential" objecttolerance="10" inkscape:pageopacity="0" inkscape:pageshadow="2" guidetolerance="10" pagecolor="#ffffff" inkscape:cy="5.1229818" showgrid="false" bordercolor="#666666" borderopacity="1" inkscape:zoom="9.4" inkscape:cx="-13.283514" fit-margin-top="0" gridtolerance="10" inkscape:window-x="0" inkscape:window-y="22" inkscape:window-maximized="0">
	</sodipodi:namedview>
<path id="STYLE" inkscape:connector-curvature="0" fill="#2C6DA3" d="M33.266,7.942V7.94h-0.021
	c-0.002,0-0.004-0.001-0.006-0.001S33.234,7.94,33.23,7.94h-4.043V3.893c0-0.002,0.002-0.003,0.002-0.003
	c0-0.001-0.002-0.003-0.002-0.004V3.863h-0.002c-0.015-0.487-0.412-0.878-0.902-0.878s-0.889,0.391-0.902,0.878h-0.002v0.021
	c0,0.002-0.001,0.004-0.001,0.006s0.001,0.004,0.001,0.007v4.044h-4.043c-0.002,0-0.004-0.001-0.007-0.001
	c-0.501,0-0.905,0.405-0.905,0.905c0,0.499,0.403,0.903,0.902,0.905l0,0c0.001,0,0.002,0,0.002,0c0.002,0,0.004,0,0.004,0h4.047
	v4.043c0,0-0.001,0.002-0.001,0.006c0,0.5,0.405,0.904,0.905,0.904c0.499,0,0.902-0.402,0.904-0.902l0,0l0.002-0.002
	c0-0.002-0.002-0.004-0.002-0.004V9.75h4.047c0.002,0,0.002,0,0.004,0c0,0,0.002,0,0.003,0h0.022V9.747
	c0.487-0.014,0.879-0.411,0.879-0.901C34.143,8.354,33.752,7.955,33.266,7.942z"/>
<rect id="BORDER" x="20.45" y="1.01" fill="transparent" stroke="#2C6DA3" stroke-width="2" width="15.667" height="15.667"/>
<path id="STYLE2" inkscape:connector-curvature="0" fill="#2C6DA3" d="M17.109,0.68H2.179c-0.001,0-0.003-0.001-0.004-0.001
	S2.172,0.68,2.17,0.68H2.134v0.004C1.4,0.705,0.811,1.304,0.811,2.044c0,0.739,0.59,1.339,1.324,1.36v0.003h0.031
	c0.003,0,0.007,0.001,0.01,0.001s0.006-0.001,0.009-0.001h14.92c0.003,0,0.006,0.001,0.009,0.001c0.755,0,1.365-0.61,1.365-1.364
	c0-0.753-0.607-1.361-1.36-1.364l0,0l0,0c-0.002,0-0.004-0.001-0.005-0.001S17.11,0.68,17.109,0.68z"/>
<path id="STYLE3" inkscape:connector-curvature="0" fill="#2C6DA3" d="M17.109,7.47H2.179c-0.001,0-0.003-0.001-0.004-0.001
	S2.172,7.47,2.17,7.47H2.134v0.004C1.4,7.496,0.811,8.094,0.811,8.836c0,0.739,0.59,1.336,1.324,1.36v0.002h0.031
	c0.003,0,0.007,0.002,0.01,0.002s0.006-0.002,0.009-0.002h14.92c0.003,0,0.006,0.002,0.009,0.002c0.755,0,1.365-0.611,1.365-1.364
	c0-0.754-0.607-1.363-1.36-1.366l0,0l0,0c-0.002,0-0.004-0.001-0.005-0.001S17.11,7.47,17.109,7.47z"/>
<path id="STYLE4" inkscape:connector-curvature="0" fill="#2C6DA3" d="M17.109,14.26H2.179c-0.001,0-0.003,0-0.004,0
	s-0.003,0-0.005,0H2.134v0.005c-0.734,0.021-1.324,0.62-1.324,1.36s0.59,1.338,1.324,1.359v0.003h0.031
	c0.003,0,0.007,0.001,0.01,0.001s0.006-0.001,0.009-0.001h14.92c0.003,0,0.006,0.001,0.009,0.001c0.755,0,1.365-0.611,1.365-1.363
	c0-0.754-0.607-1.361-1.36-1.365l0,0l0,0c-0.002,0-0.004,0-0.005,0S17.11,14.26,17.109,14.26z"/>
</svg>
