<?xml version="1.0" encoding="iso-8859-1"?>
<!-- Generator: Adobe Illustrator 12.0.0, SVG Export Plug-In . SVG Version: 6.00 Build 51448)  -->
<!DOCTYPE svg PUBLIC "-//W3C//DTD SVG 1.1//EN" "http://www.w3.org/Graphics/SVG/1.1/DTD/svg11.dtd" [
	<!ENTITY ns_svg "http://www.w3.org/2000/svg">
	<!ENTITY ns_xlink "http://www.w3.org/1999/xlink">
]>
<svg  version="1.1"
	 id="StudioScriptTask" inkscape:version="0.48.0 r9654" sodipodi:docname="scriptTask.svgz" xmlns:rdf="http://www.w3.org/1999/02/22-rdf-syntax-ns#" xmlns:dc="http://purl.org/dc/elements/1.1/" xmlns:sodipodi="http://sodipodi.sourceforge.net/DTD/sodipodi-0.dtd" xmlns:inkscape="http://www.inkscape.org/namespaces/inkscape" xmlns:svg="http://www.w3.org/2000/svg" xmlns:cc="http://creativecommons.org/ns#"
	 xmlns="&ns_svg;" xmlns:xlink="&ns_xlink;" width="25.5" height="23.551" viewBox="0 0 25.5 23.551"
	 style="overflow:visible;enable-background:new 0 0 25.5 23.551;" xml:space="preserve">
<sodipodi:namedview  id="namedview13" inkscape:window-width="640" inkscape:window-height="480" fit-margin-left="0" fit-margin-right="0" fit-margin-bottom="0" inkscape:current-layer="StudioScriptTask" objecttolerance="10" inkscape:pageopacity="0" inkscape:pageshadow="2" guidetolerance="10" pagecolor="#ffffff" inkscape:cy="68.057895" showgrid="false" bordercolor="#666666" borderopacity="1" inkscape:zoom="0.28032165" inkscape:cx="-23.067" fit-margin-top="0" gridtolerance="10">
	</sodipodi:namedview>
<path id="BORDER" inkscape:connector-curvature="0" fill="transparent" stroke="#2C6DA3" stroke-width="2" style="stroke-linecap:square;stroke-linejoin:round;" d="
	M7.5,1.167c0,0-2.75,1.434-4.75,2.867c-2,1.433-2.375,4.062,0.125,6.689c2.5,2.626,4.625,6.929,1.625,9.438
	C1.5,22.669,1,22.55,1,22.55h16.625L18,22.383c0,0,0.5,0.119,3.5-2.39s0.875-6.81-1.625-9.437c-2.5-2.628-2.125-5.256-0.125-6.689
	C21.75,2.434,24.5,1,24.5,1L7.5,1.167z"/>
<g id="STYLE">
	<path id="path5" inkscape:connector-curvature="0" fill="#2C6DA3" d="M5.551,6.591h9.918c0.002,0,0.002,0,0.004,0h0.002
		h0.023V6.588c0.488-0.014,0.881-0.412,0.881-0.904c0-0.49-0.393-0.889-0.881-0.903V4.779h-0.02c-0.002,0-0.004-0.001-0.006-0.001
		s-0.005,0.001-0.007,0.001H5.554c-0.004,0-0.004-0.001-0.008-0.001c-0.5,0-0.906,0.406-0.906,0.906s0.404,0.905,0.904,0.907l0,0
		l0,0h0.002C5.549,6.591,5.551,6.591,5.551,6.591z"/>
	<path id="path7" inkscape:connector-curvature="0" fill="#2C6DA3" d="M5.551,11.102h9.918c0.002,0,0.002,0,0.004,0h0.002
		h0.023V11.1c0.488-0.015,0.881-0.412,0.881-0.904c0-0.491-0.393-0.889-0.881-0.904V9.29h-0.02c-0.002,0-0.004,0-0.006,0
		s-0.005,0-0.007,0H5.554c-0.004,0-0.004,0-0.008,0c-0.5,0-0.906,0.406-0.906,0.906s0.404,0.904,0.904,0.906l0,0l0,0h0.002
		C5.549,11.102,5.551,11.102,5.551,11.102z"/>
	<path id="path9" inkscape:connector-curvature="0" fill="#2C6DA3" d="M9.135,15.402h9.918c0.002,0,0.002,0,0.004,0h0.002
		h0.023V15.4c0.488-0.015,0.881-0.412,0.881-0.904c0-0.49-0.393-0.889-0.881-0.903v-0.002h-0.02c-0.002,0-0.004-0.001-0.006-0.001
		s-0.005,0.001-0.009,0.001H9.136c-0.002,0-0.004-0.001-0.006-0.001c-0.5,0-0.906,0.406-0.906,0.906s0.404,0.904,0.902,0.906l0,0
		h0.002H9.13C9.133,15.402,9.133,15.402,9.135,15.402L9.135,15.402z"/>
	<path id="path11" inkscape:connector-curvature="0" fill="#2C6DA3" d="M9.135,19.914h9.918c0.002,0,0.002,0,0.004,0h0.002
		h0.023v-0.002c0.488-0.016,0.881-0.412,0.881-0.904c0-0.49-0.393-0.889-0.881-0.904v-0.002h-0.02c-0.002,0-0.004,0-0.006,0
		s-0.005,0-0.009,0H9.136c-0.002,0-0.004,0-0.006,0c-0.5,0-0.906,0.406-0.906,0.906s0.404,0.904,0.902,0.906l0,0h0.002H9.13
		C9.133,19.914,9.133,19.914,9.135,19.914z"/>
</g>
</svg>
