<?xml version="1.0" encoding="iso-8859-1"?>
<!-- Generator: Adobe Illustrator 12.0.0, SVG Export Plug-In . SVG Version: 6.00 Build 51448)  -->
<!DOCTYPE svg PUBLIC "-//W3C//DTD SVG 1.1//EN" "http://www.w3.org/Graphics/SVG/1.1/DTD/svg11.dtd" [
	<!ENTITY ns_svg "http://www.w3.org/2000/svg">
	<!ENTITY ns_xlink "http://www.w3.org/1999/xlink">
]>
<svg  version="1.1"
	 id="StudioServiceTask" inkscape:version="0.48.0 r9654" sodipodi:docname="serviceTask.svgz" xmlns:rdf="http://www.w3.org/1999/02/22-rdf-syntax-ns#" xmlns:dc="http://purl.org/dc/elements/1.1/" xmlns:sodipodi="http://sodipodi.sourceforge.net/DTD/sodipodi-0.dtd" xmlns:inkscape="http://www.inkscape.org/namespaces/inkscape" xmlns:svg="http://www.w3.org/2000/svg" xmlns:cc="http://creativecommons.org/ns#" inkscape:export-xdpi="44.490002" inkscape:export-ydpi="44.490002" inkscape:export-filename="/home/mestab/download/decorateurs/serviceTask.png"
	 xmlns="&ns_svg;" xmlns:xlink="&ns_xlink;" width="28.605" height="28.762" viewBox="0 6 34.605 34.762"
	 style="overflow:visible;enable-background:new 0 0 34.605 34.762;" xml:space="preserve">
<sodipodi:namedview  id="namedview21" inkscape:window-width="640" inkscape:window-height="480" fit-margin-left="0" fit-margin-right="0" fit-margin-bottom="0" inkscape:current-layer="StudioServiceTask" objecttolerance="10" inkscape:pageopacity="0" inkscape:pageshadow="2" guidetolerance="10" pagecolor="#ffffff" inkscape:cy="70.225001" showgrid="false" bordercolor="#666666" borderopacity="1" inkscape:zoom="0.28032165" inkscape:cx="-21.770445" fit-margin-top="0" gridtolerance="10">
	</sodipodi:namedview>
<g id="BORDER3" transform="translate(-319.41045,-462.40729)">
	<g id="g5">

			<path id="path7" inkscape:connector-curvature="0" fill="transparent" stroke="#2C6DA3" stroke-width="2" style="stroke-linecap:square;stroke-linejoin:round;" d="
			M339.472,473.736l2.275-1.3c0,0-0.104-1.196-0.791-2.865c0,0-1.199-0.035-2.652,0.147l0.045,0.161
			c-0.252-0.433-0.541-0.841-0.863-1.217l0.917-2.477c0,0-0.845-0.852-2.433-1.685c0,0-0.914,0.729-1.893,1.789
			c-0.437-0.162-0.887-0.292-1.352-0.379c-0.353-1.409-0.809-2.498-0.809-2.498c-1.805-0.048-2.961,0.287-2.961,0.287l-0.366,2.488
			c-0.558,0.184-1.085,0.426-1.581,0.716c-1.177-0.854-2.225-1.395-2.225-1.395c-1.414,1.126-2.084,2.124-2.084,2.124l1.358,2.209
			c-0.304,0.513-0.557,1.058-0.745,1.631l0.006-0.073c-1.475,0.102-2.656,0.367-2.656,0.367c-0.359,1.771-0.23,2.967-0.23,2.967
			l2.543,0.846l0.024-0.294c0.095,0.639,0.257,1.251,0.486,1.829c-1.015,0.99-1.706,1.896-1.706,1.896
			c0.861,1.586,1.729,2.421,1.729,2.421l2.424-0.96c0.357,0.292,0.742,0.55,1.144,0.78c-0.149,1.445-0.093,2.625-0.093,2.625
			c1.68,0.66,2.881,0.742,2.881,0.742l1.226-2.271c0.298,0.004,0.6-0.007,0.903-0.036c0.299-0.029,0.592-0.075,0.879-0.135
			c0.814,1.205,1.617,2.074,1.617,2.074c1.713-0.574,2.684-1.283,2.684-1.283l-0.539-2.625l-0.082,0.037
			c0.403-0.342,0.772-0.721,1.104-1.131c1.39,0.396,2.556,0.547,2.556,0.547c0.942-1.541,1.231-2.708,1.231-2.708l-2.079-1.647
			C339.458,474.89,339.494,474.318,339.472,473.736L339.472,473.736z M331.666,478.935c-2.691,0.262-5.086-1.709-5.348-4.402
			c-0.262-2.691,1.709-5.086,4.402-5.348c2.691-0.262,5.088,1.709,5.348,4.401C336.33,476.278,334.359,478.673,331.666,478.935z"/>
	</g>
</g>
<circle id="BORDER2" sodipodi:rx="5.8559999" sodipodi:cx="336.37799" sodipodi:ry="5.8559999" sodipodi:cy="479.60901" fill="#FFFFFF" stroke="#2C6DA3" stroke-width="2" style="stroke-linecap:square;stroke-linejoin:round;" cx="16.968" cy="17.201" r="5.856">
</circle>
<g id="BORDER" transform="translate(-319.41045,-462.40729)">
	<g id="g13">
		<path id="path15" inkscape:connector-curvature="0" fill="#FFFFFF" stroke="#2C6DA3" d="M344.738,479.285l2.277-1.298
			c0,0-0.104-1.196-0.793-2.866c0,0-1.197-0.035-2.65,0.148l0.045,0.16c-0.253-0.433-0.541-0.84-0.865-1.217l0.916-2.476
			c0,0-0.842-0.853-2.432-1.685c0,0-0.914,0.729-1.893,1.788c-0.437-0.162-0.887-0.291-1.351-0.378
			c-0.353-1.409-0.812-2.498-0.812-2.498c-1.805-0.048-2.961,0.287-2.961,0.287l-0.366,2.487c-0.558,0.184-1.084,0.426-1.579,0.716
			c-1.177-0.853-2.227-1.394-2.227-1.394c-1.412,1.126-2.084,2.124-2.084,2.124l1.36,2.208c-0.304,0.513-0.557,1.057-0.745,1.629
			l0.006-0.071c-1.475,0.102-2.656,0.368-2.656,0.368c-0.359,1.771-0.23,2.966-0.23,2.966l2.543,0.848l0.023-0.287
			c0.096,0.637,0.258,1.246,0.486,1.822c-1.016,0.989-1.705,1.896-1.705,1.896c0.861,1.586,1.729,2.421,1.729,2.421l2.424-0.961
			c0.357,0.293,0.742,0.551,1.144,0.78c-0.149,1.445-0.095,2.625-0.095,2.625c1.682,0.66,2.882,0.742,2.882,0.742l1.228-2.271
			c0.298,0.004,0.6-0.007,0.903-0.036c0.299-0.029,0.59-0.074,0.879-0.134c0.813,1.204,1.617,2.073,1.617,2.073
			c1.711-0.574,2.684-1.282,2.684-1.282l-0.539-2.626l-0.081,0.037c0.403-0.342,0.771-0.721,1.103-1.131
			c1.391,0.396,2.555,0.547,2.555,0.547c0.943-1.541,1.23-2.707,1.23-2.707l-2.078-1.647
			C344.724,480.439,344.762,479.868,344.738,479.285L344.738,479.285z M336.933,484.485c-2.69,0.261-5.087-1.71-5.347-4.401
			c-0.262-2.692,1.709-5.087,4.4-5.35c2.693-0.262,5.088,1.709,5.35,4.402C341.597,481.828,339.627,484.225,336.933,484.485z"/>
	</g>
	<g id="g17">

			<path id="path19" inkscape:connector-curvature="0" fill="transparent" stroke="#2C6DA3" stroke-width="2" style="stroke-linecap:square;stroke-linejoin:round;" d="
			M344.738,479.285l2.277-1.298c0,0-0.104-1.196-0.793-2.866c0,0-1.197-0.035-2.65,0.148l0.045,0.16
			c-0.253-0.433-0.541-0.84-0.865-1.217l0.916-2.476c0,0-0.842-0.853-2.432-1.685c0,0-0.914,0.729-1.893,1.788
			c-0.437-0.162-0.887-0.291-1.351-0.378c-0.353-1.409-0.812-2.498-0.812-2.498c-1.805-0.048-2.961,0.287-2.961,0.287l-0.366,2.487
			c-0.558,0.184-1.084,0.426-1.579,0.716c-1.177-0.853-2.227-1.394-2.227-1.394c-1.412,1.126-2.084,2.124-2.084,2.124l1.36,2.208
			c-0.304,0.513-0.557,1.057-0.745,1.629l0.006-0.071c-1.475,0.102-2.656,0.368-2.656,0.368c-0.359,1.771-0.23,2.966-0.23,2.966
			l2.543,0.848l0.023-0.287c0.096,0.637,0.258,1.246,0.486,1.822c-1.016,0.989-1.705,1.896-1.705,1.896
			c0.861,1.586,1.729,2.421,1.729,2.421l2.424-0.961c0.357,0.293,0.742,0.551,1.144,0.78c-0.149,1.445-0.095,2.625-0.095,2.625
			c1.682,0.66,2.882,0.742,2.882,0.742l1.228-2.271c0.298,0.004,0.6-0.007,0.903-0.036c0.299-0.029,0.59-0.074,0.879-0.134
			c0.813,1.204,1.617,2.073,1.617,2.073c1.711-0.574,2.684-1.282,2.684-1.282l-0.539-2.626l-0.081,0.037
			c0.403-0.342,0.771-0.721,1.103-1.131c1.391,0.396,2.555,0.547,2.555,0.547c0.943-1.541,1.23-2.707,1.23-2.707l-2.078-1.647
			C344.724,480.439,344.762,479.868,344.738,479.285L344.738,479.285z M336.933,484.485c-2.69,0.261-5.087-1.71-5.347-4.401
			c-0.262-2.692,1.709-5.087,4.4-5.35c2.693-0.262,5.088,1.709,5.35,4.402C341.597,481.828,339.627,484.225,336.933,484.485z"/>
	</g>
</g>
</svg>
