<?xml version="1.0" encoding="iso-8859-1"?>
<!-- Generator: Adobe Illustrator 12.0.0, SVG Export Plug-In . SVG Version: 6.00 Build 51448)  -->
<!DOCTYPE svg PUBLIC "-//W3C//DTD SVG 1.1//EN" "http://www.w3.org/Graphics/SVG/1.1/DTD/svg11.dtd" [
	<!ENTITY ns_svg "http://www.w3.org/2000/svg">
	<!ENTITY ns_xlink "http://www.w3.org/1999/xlink">
]>
<svg  version="1.1"
	 id="StudioSubProcTimer" inkscape:version="0.47 r22583" sodipodi:docname="BoundaryTimerEvent.svgz" xmlns:rdf="http://www.w3.org/1999/02/22-rdf-syntax-ns#" xmlns:dc="http://purl.org/dc/elements/1.1/" xmlns:sodipodi="http://sodipodi.sourceforge.net/DTD/sodipodi-0.dtd" xmlns:inkscape="http://www.inkscape.org/namespaces/inkscape" xmlns:svg="http://www.w3.org/2000/svg" xmlns:cc="http://creativecommons.org/ns#"
	 xmlns="&ns_svg;" xmlns:xlink="&ns_xlink;" width="32.367" height="32.367" viewBox="0 0 32.367 32.367"
	 style="overflow:visible;enable-background:new 0 0 32.367 32.367;" xml:space="preserve">
<defs>
	
	
		<inkscape:perspective  id="perspective279" inkscape:vp_z="32.366001 : 16.183001 : 1" sodipodi:type="inkscape:persp3d" inkscape:vp_x="0 : 16.183001 : 1" inkscape:vp_y="0 : 1000 : 0" inkscape:persp3d-origin="16.183001 : 10.788667 : 1">
		</inkscape:perspective>
</defs>
<sodipodi:namedview  id="namedview273" inkscape:window-width="640" inkscape:window-height="480" inkscape:current-layer="StudioSubProcTimer" objecttolerance="10" inkscape:pageopacity="0" inkscape:pageshadow="2" guidetolerance="10" pagecolor="none" inkscape:cy="16.183001" showgrid="false" bordercolor="#666666" borderopacity="1" inkscape:zoom="7.291602" inkscape:cx="16.183001" gridtolerance="10">
	</sodipodi:namedview>
<circle id="BORDER2" sodipodi:rx="15.333" sodipodi:cx="16.183001" sodipodi:ry="15.333" sodipodi:cy="16.183001" fill="transparent" stroke="#2C6DA3" stroke-width="1.7" cx="16.183" cy="16.183" r="15.333">
</circle>
<g id="g245">
	<g id="STYLE">
		<path id="path257" fill="#2C6DA3" d="M6.424,16.183c0.001-5.39,4.37-9.758,9.76-9.758l0,0c5.39,0,9.758,4.369,9.758,9.758
			l0,0c0,5.391-4.368,9.758-9.758,9.758l0,0C10.794,25.941,6.426,21.574,6.424,16.183L6.424,16.183z M7.573,16.183
			c0.008,4.754,3.854,8.604,8.611,8.611l0,0c4.754-0.008,8.603-3.856,8.608-8.611l0,0c-0.008-4.754-3.854-8.602-8.608-8.611l0,0
			C11.427,7.582,7.581,11.429,7.573,16.183L7.573,16.183z"/>
		<path id="path261" fill="#2C6DA3" d="M16.826,16.092c-0.166,0.399-0.515,0.633-0.783,0.522l0,0
			c-0.267-0.109-0.349-0.522-0.185-0.923l2.481-6.003c0.164-0.399,0.516-0.634,0.781-0.524l0,0c0.268,0.11,0.35,0.524,0.186,0.922
			L16.826,16.092z"/>
		<path id="path265" fill="#2C6DA3" d="M16.438,17.017c-0.435,0-0.654-0.277-0.654-0.619l0,0
			c0-0.342,0.219-0.619,0.654-0.619h4.793c0.435,0,0.787,0.277,0.787,0.619l0,0c0,0.342-0.353,0.619-0.787,0.619H16.438z"/>
		<path id="path269" fill="#2C6DA3" d="M11.623,8.877l0.719,1.246c0.154-0.098,0.311-0.192,0.474-0.279l-0.718-1.242
			L11.623,8.877z M23.789,12.138l-0.273-0.476l-1.246,0.719c0.098,0.155,0.193,0.312,0.277,0.474L23.789,12.138z M8.973,16.215
			c0-0.093,0.009-0.182,0.013-0.274h-1.44v0.549h1.44C8.982,16.397,8.973,16.308,8.973,16.215z M15.901,9.025
			c0.093-0.004,0.182-0.015,0.275-0.015c0.093,0,0.183,0.011,0.276,0.015v-1.44h-0.551V9.025z M19.539,9.845
			c0.162,0.086,0.317,0.182,0.474,0.279l0.719-1.246l-0.476-0.274L19.539,9.845z M8.564,12.138l1.242,0.717
			c0.086-0.162,0.181-0.318,0.279-0.474l-1.246-0.719L8.564,12.138z M19.539,22.585l0.717,1.242l0.476-0.275l-0.719-1.244
			C19.856,22.405,19.701,22.501,19.539,22.585z M22.268,20.048l1.246,0.721l0.272-0.477l-1.24-0.715
			C22.46,19.738,22.367,19.896,22.268,20.048z M8.564,20.292l0.275,0.477l1.246-0.721c-0.097-0.152-0.192-0.311-0.279-0.471
			L8.564,20.292z M23.369,15.94c0.004,0.093,0.014,0.182,0.014,0.274c0,0.092-0.01,0.183-0.014,0.274h1.439V15.94H23.369z
			 M11.623,23.552l0.475,0.275l0.718-1.24c-0.163-0.086-0.32-0.183-0.474-0.279L11.623,23.552z M15.901,23.406v1.44h0.551v-1.44
			c-0.093,0.004-0.183,0.014-0.276,0.014C16.083,23.419,15.994,23.41,15.901,23.406z"/>
	</g>
</g>
<circle id="BORDER" sodipodi:rx="12.5" sodipodi:cx="16.183001" sodipodi:ry="12.5" sodipodi:cy="16.183001" fill="transparent" stroke="#2C6DA3" stroke-width="1.7" cx="16.183" cy="16.183" r="12.5">
</circle>
</svg>
