<?xml version="1.0" encoding="iso-8859-1"?>
<!-- Generator: Adobe Illustrator 12.0.0, SVG Export Plug-In . SVG Version: 6.00 Build 51448)  -->
<!DOCTYPE svg PUBLIC "-//W3C//DTD SVG 1.1//EN" "http://www.w3.org/Graphics/SVG/1.1/DTD/svg11.dtd" [
	<!ENTITY ns_svg "http://www.w3.org/2000/svg">
	<!ENTITY ns_xlink "http://www.w3.org/1999/xlink">
]>
<svg  version="1.1"
	 id="StudioTilda" inkscape:version="0.48.0 r9654" sodipodi:docname="tilda.svgz" xmlns:rdf="http://www.w3.org/1999/02/22-rdf-syntax-ns#" xmlns:dc="http://purl.org/dc/elements/1.1/" xmlns:sodipodi="http://sodipodi.sourceforge.net/DTD/sodipodi-0.dtd" xmlns:inkscape="http://www.inkscape.org/namespaces/inkscape" xmlns:svg="http://www.w3.org/2000/svg" xmlns:cc="http://creativecommons.org/ns#"
	 xmlns="&ns_svg;" xmlns:xlink="&ns_xlink;" width="24.953" height="8.051" viewBox="0 0 24.953 8.051"
	 style="overflow:visible;enable-background:new 0 0 24.953 8.051;" xml:space="preserve">
<sodipodi:namedview  id="namedview5" inkscape:window-width="640" inkscape:window-height="480" fit-margin-left="0" fit-margin-right="0" fit-margin-bottom="0" inkscape:current-layer="StudioTilda" objecttolerance="10" inkscape:pageopacity="0" inkscape:pageshadow="2" guidetolerance="10" pagecolor="#ffffff" inkscape:cy="59.775001" showgrid="false" bordercolor="#666666" borderopacity="1" inkscape:zoom="0.28032165" inkscape:cx="-23.686" fit-margin-top="0" gridtolerance="10">
	</sodipodi:namedview>
<path id="path3" inkscape:connector-curvature="0" fill="#2C6DA3" d="M24.953,3.63c0-1.059-0.856-1.914-1.914-1.914
	c-0.363,0-0.697,0.106-0.986,0.281l-0.006-0.009c-1.309,0.974-2.504,1.46-3.584,1.46c-0.975,0-2.418-0.465-4.328-1.393
	c-1.912-0.928-3.259-1.503-4.039-1.724C9.313,0.111,8.463,0,7.545,0C6.313,0,5.188,0.226,4.167,0.676
	c-1.021,0.451-2.21,1.273-3.57,2.468L0.601,3.15C0.235,3.484,0,3.961,0,4.497c0,1.008,0.818,1.826,1.828,1.826
	c0.465,0,0.885-0.179,1.207-0.466c0.266-0.18,0.529-0.344,0.787-0.479c1.011-0.532,2.096-0.8,3.254-0.8
	c0.588,0,1.139,0.079,1.654,0.234c0.514,0.155,1.479,0.603,2.895,1.336c2.5,1.27,4.604,1.902,6.313,1.902
	c2.021,0,4.117-0.974,6.286-2.922L24.22,5.123C24.664,4.773,24.953,4.238,24.953,3.63z"/>
</svg>
