<?xml version="1.0" encoding="iso-8859-1"?>
<!-- Generator: Adobe Illustrator 12.0.0, SVG Export Plug-In . SVG Version: 6.00 Build 51448)  -->
<!DOCTYPE svg PUBLIC "-//W3C//DTD SVG 1.1//EN" "http://www.w3.org/Graphics/SVG/1.1/DTD/svg11.dtd" [
	<!ENTITY ns_svg "http://www.w3.org/2000/svg">
	<!ENTITY ns_xlink "http://www.w3.org/1999/xlink">
]>
<svg  version="1.1"
	 id="StudioTimer" inkscape:version="0.48.0 r9654" sodipodi:docname="timer.svgz" xmlns:rdf="http://www.w3.org/1999/02/22-rdf-syntax-ns#" xmlns:dc="http://purl.org/dc/elements/1.1/" xmlns:sodipodi="http://sodipodi.sourceforge.net/DTD/sodipodi-0.dtd" xmlns:inkscape="http://www.inkscape.org/namespaces/inkscape" xmlns:svg="http://www.w3.org/2000/svg" xmlns:cc="http://creativecommons.org/ns#"
	 xmlns="&ns_svg;" xmlns:xlink="&ns_xlink;" width="19.518" height="19.518" viewBox="0 0 19.518 19.518"
	 style="overflow:visible;enable-background:new 0 0 19.518 19.518;" xml:space="preserve">
<sodipodi:namedview  id="namedview31" inkscape:window-width="640" inkscape:window-height="480" fit-margin-left="0" fit-margin-right="0" fit-margin-bottom="0" inkscape:current-layer="StudioTimer" objecttolerance="10" inkscape:pageopacity="0" inkscape:pageshadow="2" guidetolerance="10" pagecolor="#ffffff" inkscape:cy="65.693001" showgrid="false" bordercolor="#666666" borderopacity="1" inkscape:zoom="0.28032165" inkscape:cx="-26.696" fit-margin-top="0" gridtolerance="10">
	</sodipodi:namedview>
<g id="STYLE" transform="translate(-324.33601,-467.121)">
	<g id="g5">
		<g id="g7">
			<path id="path17" inkscape:connector-curvature="0" fill="#2C6DA3" d="M324.336,476.879
				c0.001-5.389,4.369-9.758,9.76-9.758l0,0c5.389,0,9.758,4.369,9.758,9.758l0,0c0,5.392-4.369,9.76-9.758,9.76l0,0
				C328.705,486.638,324.337,482.27,324.336,476.879L324.336,476.879z M325.484,476.879c0.009,4.756,3.854,8.604,8.611,8.611l0,0
				c4.754-0.008,8.602-3.855,8.609-8.611l0,0c-0.009-4.754-3.855-8.602-8.609-8.609l0,0
				C329.338,468.277,325.492,472.125,325.484,476.879L325.484,476.879z"/>
		</g>
		<g id="g19">
			<path id="path21" inkscape:connector-curvature="0" fill="#2C6DA3" d="M334.737,476.788
				c-0.166,0.399-0.515,0.633-0.781,0.522l0,0c-0.269-0.109-0.351-0.522-0.187-0.924l2.482-6.002
				c0.164-0.399,0.516-0.636,0.779-0.524l0,0c0.27,0.11,0.352,0.524,0.187,0.923L334.737,476.788L334.737,476.788z"/>
		</g>
		<g id="g23">
			<path id="path25" inkscape:connector-curvature="0" fill="#2C6DA3" d="M334.349,477.713c-0.435,0-0.654-0.276-0.654-0.618
				l0,0c0-0.343,0.221-0.619,0.654-0.619h4.794c0.435,0,0.787,0.276,0.787,0.619l0,0c0,0.342-0.354,0.618-0.787,0.618H334.349z"/>
		</g>
		<g id="g27">
			<path id="path29" inkscape:connector-curvature="0" fill="#2C6DA3" d="M329.534,469.574l0.72,1.246
				c0.152-0.099,0.311-0.193,0.473-0.279l-0.717-1.241L329.534,469.574L329.534,469.574z M341.699,472.834l-0.272-0.476l-1.247,0.72
				c0.099,0.154,0.194,0.312,0.278,0.474L341.699,472.834L341.699,472.834z M326.884,476.911c0-0.093,0.009-0.182,0.013-0.273
				h-1.438v0.549h1.438C326.893,477.094,326.884,477.004,326.884,476.911L326.884,476.911z M333.813,469.721
				c0.093-0.004,0.183-0.015,0.275-0.015c0.092,0,0.182,0.011,0.274,0.015v-1.439h-0.551L333.813,469.721L333.813,469.721z
				 M337.449,470.541c0.162,0.086,0.318,0.183,0.474,0.279l0.719-1.246l-0.475-0.274L337.449,470.541L337.449,470.541z
				 M326.475,472.834l1.242,0.718c0.086-0.162,0.181-0.318,0.279-0.474l-1.246-0.72L326.475,472.834L326.475,472.834z
				 M337.449,483.281l0.718,1.242l0.475-0.275l-0.719-1.244C337.768,483.102,337.611,483.197,337.449,483.281L337.449,483.281z
				 M340.179,480.745l1.247,0.721l0.272-0.477l-1.241-0.716C340.373,480.435,340.277,480.592,340.179,480.745L340.179,480.745z
				 M326.475,480.989l0.275,0.477l1.246-0.721c-0.099-0.152-0.193-0.311-0.279-0.472L326.475,480.989L326.475,480.989z
				 M341.279,476.637c0.004,0.093,0.014,0.182,0.014,0.273s-0.01,0.184-0.014,0.274h1.439v-0.549L341.279,476.637L341.279,476.637z
				 M329.534,484.248l0.477,0.275l0.717-1.24c-0.162-0.086-0.319-0.182-0.473-0.279L329.534,484.248L329.534,484.248z
				 M333.813,484.103v1.439h0.551v-1.439c-0.094,0.004-0.184,0.013-0.274,0.013C333.994,484.115,333.905,484.106,333.813,484.103z"
				/>
		</g>
	</g>
</g>
</svg>
